<svg viewBox="0 0 12 12" width="60px" height="60px" xmlns="http://www.w3.org/2000/svg"><path fill-rule="evenodd" d="M 4,2 7,2 7,4 9,4 9,7 10,7 10,11 7,11 7,9 4,9 4,11 1,11 1,7 2,7 2,4 4,4z" fill="#F0B726"/><path fill-rule="evenodd" d="M 5,3 6,3 6,4 5,4z" fill="#ffffff"/><path fill-rule="evenodd" d="M 3,5 8,5 8,8 6,8 6,7 7,7 7,6 4,6 4,7 5,7 5,8 3,8z" fill="#ffffff"/><path fill-rule="evenodd" d="M 2,8 3,8 3,10 2,10z" fill="#ffffff"/><path fill-rule="evenodd" d="M 8,8 9,8 9,10 8,10z" fill="#ffffff"/></svg>